<?xml version="1.0" encoding="UTF-8" standalone="no"?>
<svg
   height="48px"
   viewBox="0 0 24 24"
   width="48px"
   fill="#000000"
   version="1.1"
   id="svg6"
   sodipodi:docname="_selectcutouthelper.svg"
   inkscape:version="1.2.2 (b0a8486541, 2022-12-01)"
   xml:space="preserve"
   xmlns:inkscape="http://www.inkscape.org/namespaces/inkscape"
   xmlns:sodipodi="http://sodipodi.sourceforge.net/DTD/sodipodi-0.dtd"
   xmlns="http://www.w3.org/2000/svg"
   xmlns:svg="http://www.w3.org/2000/svg"><defs
     id="defs10" /><sodipodi:namedview
     id="namedview8"
     pagecolor="#505050"
     bordercolor="#ffffff"
     borderopacity="1"
     inkscape:showpageshadow="0"
     inkscape:pageopacity="0"
     inkscape:pagecheckerboard="1"
     inkscape:deskcolor="#505050"
     showgrid="false"
     inkscape:zoom="18.229147"
     inkscape:cx="20.324593"
     inkscape:cy="27.044601"
     inkscape:window-width="2256"
     inkscape:window-height="1424"
     inkscape:window-x="0"
     inkscape:window-y="48"
     inkscape:window-maximized="1"
     inkscape:current-layer="svg6" /><path
     d="M 34.999069,40.968676 23.141938,28.887677 20.86172,35.121781 c -0.646064,1.742452 -3.040292,1.66501 -3.610347,-0.116172 L 10.486728,12.934566 c -0.456046,-1.510125 0.912087,-2.904084 2.394228,-2.439432 l 21.662068,6.892361 c 1.710164,0.542097 1.786171,3.020252 0.114012,3.678511 l -6.118583,2.32327 11.857131,12.080996 c 0.760076,0.774424 0.760076,1.974778 0,2.749201 l -2.698256,2.749203 c -0.760074,0.735702 -1.938182,0.735702 -2.698259,0 z"
     id="path520-3"
     style="fill:#e70000;stroke-width:3.83608;fill-opacity:1" /><path
     d="m 20.076,21.78 -3.744,-3.744 -0.72,1.932 c -0.204,0.54 -0.96,0.516 -1.14,-0.036 l -2.136,-6.84 c -0.144,-0.468 0.288,-0.9 0.756,-0.756 l 6.84,2.136 c 0.54,0.168 0.564,0.936 0.036,1.14 l -1.932,0.72 3.744,3.744 c 0.24,0.24 0.24,0.612 0,0.852 l -0.852,0.852 c -0.24,0.228 -0.612,0.228 -0.852,0 z"
     id="path520"
     style="fill:#000000;stroke-width:1.2" /></svg>
