<?xml version="1.0" encoding="UTF-8" standalone="no"?>
<svg
   height="48px"
   viewBox="0 0 24 24"
   width="48px"
   fill="#000000"
   version="1.1"
   id="svg6"
   sodipodi:docname="addtimeline.svg"
   inkscape:version="1.2.2 (b0a8486541, 2022-12-01)"
   xmlns:inkscape="http://www.inkscape.org/namespaces/inkscape"
   xmlns:sodipodi="http://sodipodi.sourceforge.net/DTD/sodipodi-0.dtd"
   xmlns="http://www.w3.org/2000/svg"
   xmlns:svg="http://www.w3.org/2000/svg">
  <defs
     id="defs10" />
  <sodipodi:namedview
     id="namedview8"
     pagecolor="#505050"
     bordercolor="#ffffff"
     borderopacity="1"
     inkscape:showpageshadow="0"
     inkscape:pageopacity="0"
     inkscape:pagecheckerboard="1"
     inkscape:deskcolor="#505050"
     showgrid="false"
     inkscape:zoom="11.313709"
     inkscape:cx="23.688077"
     inkscape:cy="26.693281"
     inkscape:window-width="1920"
     inkscape:window-height="1026"
     inkscape:window-x="0"
     inkscape:window-y="32"
     inkscape:window-maximized="1"
     inkscape:current-layer="svg6" />
  <path
     d="M0 0h24v24H0V0z"
     fill="none"
     id="path2" />
  <path
     d="m 21.368849,18.213085 h -3.155764 v 3.155763 C 18.213085,21.715982 17.929067,22 17.581934,22 17.2348,22 16.950781,21.715982 16.950781,21.368848 v -3.155763 h -3.155763 c -0.347133,0 -0.631152,-0.284018 -0.631152,-0.631152 0,-0.347133 0.284019,-0.631152 0.631152,-0.631152 h 3.155763 v -3.155763 c 0,-0.347134 0.284019,-0.631153 0.631153,-0.631153 0.347133,0 0.631151,0.284019 0.631151,0.631153 v 3.155763 h 3.155764 C 21.715982,16.950781 22,17.2348 22,17.581933 c 0,0.347134 -0.284018,0.631152 -0.631151,0.631152 z"
     id="path4-3"
     style="stroke-width:0.631152" />
  <g
     id="g303"
     transform="matrix(0.88632031,0,0,0.88632031,-0.08155158,0.91281622)">
    <g
       id="g301">
      <path
         d="m 8.25,3 h 3.5 C 12.16,3 12.5,2.66 12.5,2.25 12.5,1.84 12.16,1.5 11.75,1.5 H 8.25 C 7.84,1.5 7.5,1.84 7.5,2.25 7.5,2.66 7.84,3 8.25,3 Z"
         id="path297" />
      <path
         d="M 15.45,6.61 16,6.06 C 16.29,5.77 16.29,5.29 16,5 15.71,4.71 15.23,4.71 14.94,5 L 14.39,5.55 C 12.89,4.34 10.89,3.74 8.75,4.11 5.94,4.6 3.66,6.84 3.13,9.64 c -0.93,4.93 3.31,9.16 8.23,8.23 2.8,-0.53 5.04,-2.81 5.53,-5.62 0.37,-2.14 -0.23,-4.14 -1.44,-5.64 z m -4.7,4.64 C 10.75,11.66 10.41,12 10,12 9.59,12 9.25,11.66 9.25,11.25 V 7.75 C 9.25,7.34 9.59,7 10,7 c 0.41,0 0.75,0.34 0.75,0.75 z"
         id="path299" />
    </g>
  </g>
</svg>
