<?xml version="1.0" encoding="UTF-8" standalone="no"?>
<svg
   height="48px"
   viewBox="0 0 24 24"
   width="48px"
   fill="#000000"
   version="1.1"
   id="svg6"
   sodipodi:docname="compositeattribute.svg"
   inkscape:version="1.2.2 (b0a8486541, 2022-12-01)"
   xmlns:inkscape="http://www.inkscape.org/namespaces/inkscape"
   xmlns:sodipodi="http://sodipodi.sourceforge.net/DTD/sodipodi-0.dtd"
   xmlns="http://www.w3.org/2000/svg"
   xmlns:svg="http://www.w3.org/2000/svg">
  <defs
     id="defs10" />
  <sodipodi:namedview
     id="namedview8"
     pagecolor="#505050"
     bordercolor="#ffffff"
     borderopacity="1"
     inkscape:showpageshadow="0"
     inkscape:pageopacity="0"
     inkscape:pagecheckerboard="1"
     inkscape:deskcolor="#505050"
     showgrid="false"
     inkscape:zoom="9.4166667"
     inkscape:cx="10.141593"
     inkscape:cy="22.938053"
     inkscape:window-width="1920"
     inkscape:window-height="1026"
     inkscape:window-x="0"
     inkscape:window-y="32"
     inkscape:window-maximized="1"
     inkscape:current-layer="text347" />
  <path
     d="M0 0h24v24H0V0z"
     fill="none"
     id="path2" />
  <g
     aria-label="{{"
     id="text347"
     style="font-size:7.9034px;line-height:1.25;font-family:Overpass;-inkscape-font-specification:Overpass;letter-spacing:0px;word-spacing:0px;stroke-width:0.197585"
     transform="matrix(0.67348177,0,0,0.67348177,4.903364,10.35278)">
    <path
       d="m 16.592993,0.10268128 h 2.062035 V 2.1647141 h -2.062035 z m 0,-4.12406608 h 2.062035 v 2.0620329 h -2.062035 z m 2.062035,8.2481318 h -2.062035 v 2.062036 c 1.031017,0 2.062035,-1.0310164 2.062035,-2.062036 z M 8.3448586,-12.269518 h 2.0620334 v 2.062033 H 8.3448586 Z m 8.2481344,4.1240659 h 2.062035 v 2.0620344 h -2.062035 z m 0,-4.1240659 v 2.062033 h 2.062035 c 0,-1.031016 -1.031018,-2.062033 -2.062035,-2.062033 z m -20.6203354,4.1240659 h 2.0620333 v 2.0620344 H -4.0273424 Z M 12.468925,-12.269518 h 2.062033 v 2.062033 h -2.062033 z m 0,16.496265 h 2.062033 V 6.288783 H 12.468925 Z M -1.9653091,-12.269518 c -1.0310165,0 -2.0620333,1.031017 -2.0620333,2.062033 h 2.0620333 z m 6.1861023,0 h 2.062033 v 2.062033 h -2.062033 z m -4.12406871,0 H 2.1587577 v 2.062033 H 0.09672449 Z M -4.0273424,-4.0213848 V 4.226747 c 0,1.1341206 0.9279151,2.062036 2.0620333,2.062036 H 10.406892 v -8.2481349 c 0,-1.1341175 -0.9279125,-2.0620329 -2.0620334,-2.0620329 z m 2.711574,7.41301 1.53621469,-1.9692409 C 0.4266491,1.164631 0.80812602,1.1543188 1.0246394,1.4122438 L 2.4577525,3.1340434 4.6228883,0.35030188 C 4.8290951,0.08223327 5.2414992,0.08223327 5.4373938,0.36044203 L 7.7262495,3.4122525 C 7.9840027,3.7524826 7.7364413,4.2370606 7.3138429,4.2370606 H -0.9136718 C -1.3363889,4.2267641 -1.5838328,3.7318615 -1.3157684,3.3916252 Z"
       id="path4"
       style="stroke-width:1.03102" />
    <g
       aria-label="{{ }}"
       id="text1062"
       style="font-size:11.5772px;stroke-width:0.0571868"
       transform="matrix(0.80263888,0,0,0.80263888,9.1267397,3.3046383)">
      <path
         d="M 4.3781658,17.263722 Q 3.3014862,17.240568 2.6763174,16.557513 2.0627258,15.874458 2.0627258,14.577812 v -0.636746 q 0,-0.509397 -0.2083896,-0.821982 Q 1.6459466,12.8065 1.2754762,12.8065 H 1.1712814 v -0.856713 h 0.1041948 q 0.3704704,0 0.57886,-0.301007 0.2083896,-0.312584 0.2083896,-0.821981 V 10.20163 q 0,-1.2966463 0.6135916,-1.9797011 0.6251688,-0.6830548 1.7018484,-0.7062092 v 0.86829 Q 3.7298426,8.4071641 3.405681,8.8239433 3.0815194,9.2291453 3.0815194,9.9816633 v 0.7062087 q 0,0.891445 -0.28943,1.261915 -0.2778528,0.358893 -0.8914444,0.439934 0.6135916,0.06946 0.8914444,0.428356 0.28943,0.358893 0.28943,1.273492 v 0.694632 q 0,1.562922 1.2966464,1.609231 z"
         id="path1073" />
      <path
         d="M 8.6848813,17.263722 Q 7.6082017,17.240568 6.9830329,16.557513 6.3694413,15.874458 6.3694413,14.577812 v -0.636746 q 0,-0.509397 -0.2083896,-0.821982 Q 5.9526621,12.8065 5.5821917,12.8065 H 5.4779969 v -0.856713 h 0.1041948 q 0.3704704,0 0.57886,-0.301007 0.2083896,-0.312584 0.2083896,-0.821981 V 10.20163 q 0,-1.2966463 0.6135916,-1.9797011 0.6251688,-0.6830548 1.7018484,-0.7062092 v 0.86829 q -0.6483232,0.023154 -0.9724848,0.4399336 -0.3241616,0.405202 -0.3241616,1.15772 v 0.7062087 q 0,0.891445 -0.28943,1.261915 -0.2778528,0.358893 -0.8914444,0.439934 0.6135916,0.06946 0.8914444,0.428356 0.28943,0.358893 0.28943,1.273492 v 0.694632 q 0,1.562922 1.2966464,1.609231 z"
         id="path1075" />
      <path
         d="m 12.389589,17.263722 v -0.86829 q 1.285069,-0.05789 1.285069,-1.609231 v -0.694632 q 0,-0.914599 0.277853,-1.273492 0.28943,-0.358893 0.903022,-0.428356 -0.613592,-0.08104 -0.903022,-0.439934 -0.277853,-0.37047 -0.277853,-1.261915 V 9.9816633 q 0,-1.5397676 -1.285069,-1.5976536 v -0.86829 q 1.065103,0.023154 1.678694,0.7062092 0.625169,0.6830548 0.625169,1.9797011 v 0.625169 q 0,0.509397 0.20839,0.821981 0.219966,0.301007 0.57886,0.301007 h 0.115772 V 12.8065 h -0.115772 q -0.358894,0 -0.57886,0.312584 -0.20839,0.312585 -0.20839,0.821982 v 0.636746 q 0,1.296646 -0.625169,1.979701 -0.613591,0.683055 -1.678694,0.706209 z"
         id="path1077" />
      <path
         d="m 16.696305,17.263722 v -0.86829 q 1.285069,-0.05789 1.285069,-1.609231 v -0.694632 q 0,-0.914599 0.277853,-1.273492 0.28943,-0.358893 0.903022,-0.428356 -0.613592,-0.08104 -0.903022,-0.439934 -0.277853,-0.37047 -0.277853,-1.261915 V 9.9816633 q 0,-1.5397676 -1.285069,-1.5976536 v -0.86829 q 1.065103,0.023154 1.678694,0.7062092 0.625169,0.6830548 0.625169,1.9797011 v 0.625169 q 0,0.509397 0.20839,0.821981 0.219966,0.301007 0.57886,0.301007 H 19.90319 V 12.8065 h -0.115772 q -0.358894,0 -0.57886,0.312584 -0.20839,0.312585 -0.20839,0.821982 v 0.636746 q 0,1.296646 -0.625169,1.979701 -0.613591,0.683055 -1.678694,0.706209 z"
         id="path1079" />
    </g>
  </g>
</svg>
