<?xml version="1.0" encoding="UTF-8" standalone="no"?>
<svg
   height="48px"
   viewBox="0 0 24 24"
   width="48px"
   fill="#000000"
   version="1.1"
   id="svg6"
   sodipodi:docname="deletekeyframe.svg"
   inkscape:version="1.2.2 (b0a8486541, 2022-12-01)"
   xmlns:inkscape="http://www.inkscape.org/namespaces/inkscape"
   xmlns:sodipodi="http://sodipodi.sourceforge.net/DTD/sodipodi-0.dtd"
   xmlns="http://www.w3.org/2000/svg"
   xmlns:svg="http://www.w3.org/2000/svg">
  <defs
     id="defs10" />
  <sodipodi:namedview
     id="namedview8"
     pagecolor="#505050"
     bordercolor="#ffffff"
     borderopacity="1"
     inkscape:showpageshadow="0"
     inkscape:pageopacity="0"
     inkscape:pagecheckerboard="1"
     inkscape:deskcolor="#505050"
     showgrid="false"
     inkscape:zoom="16"
     inkscape:cx="38.03125"
     inkscape:cy="28.0625"
     inkscape:window-width="1920"
     inkscape:window-height="1026"
     inkscape:window-x="0"
     inkscape:window-y="32"
     inkscape:window-maximized="1"
     inkscape:current-layer="svg6" />
  <path
     d="M0 0h24v24H0V0z"
     fill="none"
     id="path2" />
  <rect
     style="fill:#020603;fill-opacity:1;stroke-width:0.569291;stop-color:#000000"
     id="rect703"
     width="11.16464"
     height="11.16464"
     x="7.0618792"
     y="-5.3569679"
     ry="1.7752656"
     transform="rotate(45)" />
  <path
     d="M 16.17197,21.018207 C 16.17197,21.558192 16.613777,22 17.153763,22 h 3.927171 c 0.539986,0 0.981793,-0.441808 0.981793,-0.981793 v -4.908963 c 0,-0.539986 -0.441807,-0.981793 -0.981793,-0.981793 h -3.927171 c -0.539986,0 -0.981793,0.441807 -0.981793,0.981793 z m 5.890757,-7.363444 H 20.835486 L 20.48695,13.306227 c -0.08836,-0.08836 -0.215995,-0.142361 -0.343628,-0.142361 h -2.051946 c -0.127633,0 -0.255267,0.054 -0.343628,0.142361 l -0.348536,0.348536 H 16.17197 c -0.269993,0 -0.490895,0.220903 -0.490895,0.490897 0,0.269991 0.220902,0.490894 0.490895,0.490894 h 5.890757 c 0.269994,0 0.490896,-0.220903 0.490896,-0.490894 0,-0.269993 -0.220902,-0.490897 -0.490896,-0.490897 z"
     id="path1371"
     style="stroke-width:0.490897" />
</svg>
