<?xml version="1.0" encoding="UTF-8" standalone="no"?>
<svg
   enable-background="new 0 0 20 20"
   height="48px"
   viewBox="0 0 20 20"
   width="48px"
   fill="#00000"
   version="1.1"
   id="svg1639"
   sodipodi:docname="placeholderb.svg"
   inkscape:version="1.2.2 (b0a8486541, 2022-12-01)"
   xmlns:inkscape="http://www.inkscape.org/namespaces/inkscape"
   xmlns:sodipodi="http://sodipodi.sourceforge.net/DTD/sodipodi-0.dtd"
   xmlns="http://www.w3.org/2000/svg"
   xmlns:svg="http://www.w3.org/2000/svg">
  <defs
     id="defs1643" />
  <sodipodi:namedview
     id="namedview1641"
     pagecolor="#505050"
     bordercolor="#ffffff"
     borderopacity="1"
     inkscape:showpageshadow="0"
     inkscape:pageopacity="0"
     inkscape:pagecheckerboard="1"
     inkscape:deskcolor="#505050"
     showgrid="false"
     inkscape:zoom="22.252207"
     inkscape:cx="24.334665"
     inkscape:cy="24.267256"
     inkscape:window-width="2256"
     inkscape:window-height="1424"
     inkscape:window-x="0"
     inkscape:window-y="48"
     inkscape:window-maximized="1"
     inkscape:current-layer="svg1639" />
  <path
     id="path1635"
     style="fill:#000000;fill-opacity:1"
     d="M 3.5001628 3.9998372 C 2.6701636 3.9998372 2.0003255 4.6696753 2.0003255 5.4996745 L 2.0003255 14.500326 C 2.0003255 15.330325 2.6701636 16.000163 3.5001628 16.000163 L 16.499837 16.000163 C 17.329836 16.000163 17.999674 15.330325 17.999674 14.500326 L 17.999674 5.4996745 C 17.999674 4.6696753 17.329836 3.9998372 16.499837 3.9998372 L 3.5001628 3.9998372 z M 7.1337891 6.25 L 10.198568 6.25 C 11.034282 6.25 11.641285 6.4394623 12.019857 6.8180339 C 12.405571 7.1966054 12.59847 7.6750091 12.59847 8.2535807 C 12.59847 8.9678667 12.276972 9.4822637 11.634115 9.7965495 C 12.0484 9.9465495 12.355338 10.182315 12.555339 10.503743 C 12.762481 10.818029 12.866211 11.160961 12.866211 11.532389 C 12.866211 12.13239 12.658752 12.65366 12.244466 13.096517 C 11.837323 13.532231 11.208887 13.75 10.358887 13.75 L 7.1337891 13.75 L 7.1337891 6.25 z M 8.4195964 7.4389648 L 8.4195964 9.2716471 L 10.026855 9.2716471 C 10.441141 9.2716471 10.754952 9.1893509 10.969238 9.0250651 C 11.190667 8.8607793 11.302083 8.6353238 11.302083 8.3496094 C 11.302083 7.7424663 10.944592 7.4389648 10.230306 7.4389648 L 8.4195964 7.4389648 z M 8.4195964 10.460612 L 8.4195964 12.561035 L 10.433757 12.561035 C 10.833757 12.561035 11.119261 12.464179 11.29069 12.271322 C 11.469262 12.071322 11.559245 11.835556 11.559245 11.564128 C 11.559245 10.828413 11.080027 10.460612 10.122884 10.460612 L 8.4195964 10.460612 z " />
</svg>
