<?xml version="1.0" encoding="UTF-8" standalone="no"?>
<svg
   enable-background="new 0 0 20 20"
   height="48px"
   viewBox="0 0 20 20"
   width="48px"
   fill="#00000"
   version="1.1"
   id="svg1639"
   sodipodi:docname="placeholdera.svg"
   inkscape:version="1.2.2 (b0a8486541, 2022-12-01)"
   xmlns:inkscape="http://www.inkscape.org/namespaces/inkscape"
   xmlns:sodipodi="http://sodipodi.sourceforge.net/DTD/sodipodi-0.dtd"
   xmlns="http://www.w3.org/2000/svg"
   xmlns:svg="http://www.w3.org/2000/svg">
  <defs
     id="defs1643" />
  <sodipodi:namedview
     id="namedview1641"
     pagecolor="#505050"
     bordercolor="#ffffff"
     borderopacity="1"
     inkscape:showpageshadow="0"
     inkscape:pageopacity="0"
     inkscape:pagecheckerboard="1"
     inkscape:deskcolor="#505050"
     showgrid="false"
     inkscape:zoom="22.252207"
     inkscape:cx="24.289726"
     inkscape:cy="22.55956"
     inkscape:window-width="2256"
     inkscape:window-height="1424"
     inkscape:window-x="0"
     inkscape:window-y="48"
     inkscape:window-maximized="1"
     inkscape:current-layer="svg1639" />
  <path
     id="path1635"
     style="fill:#000000;fill-opacity:1"
     d="M 3.5001628 3.9998372 C 2.6701636 3.9998372 2.0003255 4.6696753 2.0003255 5.4996745 L 2.0003255 14.500326 C 2.0003255 15.330325 2.6701636 16.000163 3.5001628 16.000163 L 16.499837 16.000163 C 17.329836 16.000163 17.999674 15.330325 17.999674 14.500326 L 17.999674 5.4996745 C 17.999674 4.6696753 17.329836 3.9998372 16.499837 3.9998372 L 3.5001628 3.9998372 z M 9.3676758 6.25 L 10.642904 6.25 L 13.428548 13.75 L 12.078451 13.75 L 11.489258 12.111003 L 8.5213216 12.111003 L 7.9321289 13.75 L 6.5714518 13.75 L 9.3676758 6.25 z M 10.010579 7.9427083 C 9.9534366 8.1498513 9.8711403 8.4036132 9.7639974 8.7036133 L 8.9282227 10.953776 L 11.082357 10.953776 L 10.257161 8.7036133 C 10.150019 8.4321846 10.067722 8.1784227 10.010579 7.9427083 z " />
</svg>
