<?xml version="1.0" encoding="UTF-8" standalone="no"?>
<svg
   height="48px"
   viewBox="0 0 24 24"
   width="48px"
   fill="#000000"
   version="1.1"
   id="svg6"
   sodipodi:docname="selectanimation.svg"
   inkscape:version="1.2.2 (b0a8486541, 2022-12-01)"
   xml:space="preserve"
   xmlns:inkscape="http://www.inkscape.org/namespaces/inkscape"
   xmlns:sodipodi="http://sodipodi.sourceforge.net/DTD/sodipodi-0.dtd"
   xmlns="http://www.w3.org/2000/svg"
   xmlns:svg="http://www.w3.org/2000/svg"><defs
     id="defs10" /><sodipodi:namedview
     id="namedview8"
     pagecolor="#505050"
     bordercolor="#ffffff"
     borderopacity="1"
     inkscape:showpageshadow="0"
     inkscape:pageopacity="0"
     inkscape:pagecheckerboard="1"
     inkscape:deskcolor="#505050"
     showgrid="false"
     inkscape:zoom="18.229147"
     inkscape:cx="20.324593"
     inkscape:cy="27.0446"
     inkscape:window-width="2256"
     inkscape:window-height="1424"
     inkscape:window-x="0"
     inkscape:window-y="48"
     inkscape:window-maximized="1"
     inkscape:current-layer="svg6" /><path
     d="M0 0h24v24H0V0z"
     fill="none"
     id="path2" /><path
     d="m 7.230591,3.5717772 h 3.102121 c 0.363391,0 0.66474,-0.301349 0.66474,-0.6647403 0,-0.3633913 -0.301349,-0.6647402 -0.66474,-0.6647402 H 7.230591 c -0.3633913,0 -0.6647403,0.3013489 -0.6647403,0.6647402 0,0.3633913 0.301349,0.6647403 0.6647403,0.6647403 z"
     id="path297"
     style="stroke-width:0.88632" /><path
     id="path299"
     style="stroke-width:0.88632"
     d="M 8.7255859 4.4599609 C 8.3807783 4.4631029 8.0294638 4.4941757 7.6738281 4.5556641 C 5.1832706 4.9899605 3.1621321 6.9753368 2.6923828 9.4570312 C 1.8681057 13.826586 5.6266131 17.575254 9.9873047 16.750977 C 10.518575 16.650415 11.02457 16.475282 11.5 16.243164 L 10.486328 12.93457 C 10.030283 11.424447 11.39872 10.030466 12.880859 10.495117 L 14.962891 11.157227 C 15.092068 9.4939292 14.568252 7.9565429 13.612305 6.7714844 L 14.099609 6.2841797 C 14.356642 6.027147 14.356642 5.6017592 14.099609 5.3447266 C 13.842577 5.0876939 13.417189 5.0876939 13.160156 5.3447266 L 12.672852 5.8320312 C 11.592649 4.9606685 10.219753 4.4463459 8.7255859 4.4599609 z M 8.78125 7.1171875 C 9.1446409 7.1171875 9.4462891 7.4188356 9.4462891 7.7822266 L 9.4462891 10.883789 C 9.4462891 11.24718 9.1446409 11.548828 8.78125 11.548828 C 8.4178591 11.548828 8.1171875 11.24718 8.1171875 10.883789 L 8.1171875 7.7822266 C 8.1171875 7.4188356 8.4178591 7.1171875 8.78125 7.1171875 z " /><rect
     fill="none"
     height="24"
     width="24"
     id="rect518"
     x="0"
     y="0"
     style="stroke-width:1.2" /><path
     d="m 20.076,21.78 -3.744,-3.744 -0.72,1.932 c -0.204,0.54 -0.96,0.516 -1.14,-0.036 l -2.136,-6.84 c -0.144,-0.468 0.288,-0.9 0.756,-0.756 l 6.84,2.136 c 0.54,0.168 0.564,0.936 0.036,1.14 l -1.932,0.72 3.744,3.744 c 0.24,0.24 0.24,0.612 0,0.852 l -0.852,0.852 c -0.24,0.228 -0.612,0.228 -0.852,0 z"
     id="path520"
     style="fill:#000000;stroke-width:1.2" /></svg>
