<?xml version="1.0" encoding="UTF-8" standalone="no"?>
<svg
   height="48px"
   viewBox="0 0 24 24"
   width="48px"
   fill="#000000"
   version="1.1"
   id="svg6"
   sodipodi:docname="visionmixer.svg"
   inkscape:version="1.2.2 (b0a8486541, 2022-12-01)"
   xmlns:inkscape="http://www.inkscape.org/namespaces/inkscape"
   xmlns:sodipodi="http://sodipodi.sourceforge.net/DTD/sodipodi-0.dtd"
   xmlns="http://www.w3.org/2000/svg"
   xmlns:svg="http://www.w3.org/2000/svg">
  <defs
     id="defs10" />
  <sodipodi:namedview
     id="namedview8"
     pagecolor="#505050"
     bordercolor="#ffffff"
     borderopacity="1"
     inkscape:showpageshadow="0"
     inkscape:pageopacity="0"
     inkscape:pagecheckerboard="1"
     inkscape:deskcolor="#505050"
     showgrid="false"
     inkscape:zoom="9.4166667"
     inkscape:cx="45.185841"
     inkscape:cy="27.823009"
     inkscape:window-width="1920"
     inkscape:window-height="1026"
     inkscape:window-x="0"
     inkscape:window-y="32"
     inkscape:window-maximized="1"
     inkscape:current-layer="g448" />
  <path
     d="M0 0h24v24H0V0z"
     fill="none"
     id="path2" />
  <g
     id="g448"
     transform="matrix(0.84210526,0,0,0.84210526,-0.21052585,-0.21052627)"
     style="stroke-width:1.1875">
    <g
       id="g472"
       transform="matrix(1.125,0,0,1.125,-1.8127407,-1.8125)"
       style="stroke-width:1.05556">
      <path
         d="m 19,10 v 6 c 0,0.549998 -0.450002,1 -1,1 H 8 v 2 h 11 c 1.099998,0 2,-0.900002 2,-2 v -7 z"
         id="path440"
         style="stroke-width:1.05556" />
      <path
         d="M 5,5 C 3.9000022,5 3,5.9000022 3,7 v 10 c 0,1.099998 0.9000022,2 2,2 H 7 V 17 H 6 C 5.4500011,17 5,16.549998 5,16 V 8 C 5,7.4500011 5.4500011,7 6,7 h 12 c 0.549998,0 1,0.4500011 1,1 v 1 h 2 V 7 C 21,5.9000022 20.099998,5 19,5 Z"
         id="path4"
         style="stroke-width:1.05556" />
      <path
         id="path4-3"
         style="stroke-width:1.05556"
         d="m 10.000488,10.000488 c -1.0999991,0 -2.0004275,0.899269 -2.0004275,1.999268 v 9.999817 C 8.0000605,23.099572 8.9004889,24 10.000488,24 H 24 c 1.099998,0 2.000427,-0.900428 2.000427,-2.000427 v -9.999817 c 0,-1.099999 -0.900429,-1.999268 -2.000427,-1.999268 z" />
    </g>
  </g>
</svg>
